<svg width="534" height="467" viewBox="0 0 534 467" fill="none" xmlns="http://www.w3.org/2000/svg">
<mask id="mask0_0_113" style="mask-type:luminance" maskUnits="userSpaceOnUse" x="0" y="0" width="534" height="466">
<path fill-rule="evenodd" clip-rule="evenodd" d="M22.2931 407.881C22.2931 407.881 136.86 484.139 278.927 461.865C420.993 439.592 474.358 381.812 474.358 381.812L438.081 224.142C438.081 224.142 517.949 166.53 528.959 104.884C539.97 43.2379 533.231 1.15527 499.447 1.15527C465.662 1.15527 417.317 113.859 391.716 109.565C366.116 105.272 358.696 45.5078 329.706 61.7094C300.716 77.911 311.022 -11.0548 250.613 1.15527C190.204 13.3653 235.693 82.762 177.309 61.7094C118.925 40.6568 72.0886 55.7137 56.3662 94.3926C40.6438 133.071 -16.0805 179.391 4.40629 247.828C24.8931 316.265 38.1181 310.613 36.0747 352.665C34.0313 394.718 22.2931 407.881 22.2931 407.881Z" fill="white"/>
</mask>
<g mask="url(#mask0_0_113)">
<path fill-rule="evenodd" clip-rule="evenodd" d="M91.298 247.828C91.298 247.828 84.3941 258.154 82.3254 293.449C80.2566 328.745 76.6577 540.211 76.6577 540.211H110.227C110.227 540.211 124.187 402.613 126.293 376.156C128.399 349.699 140.569 249.688 140.569 249.688L91.298 247.828Z" fill="#6FBF44"/>
<path fill-rule="evenodd" clip-rule="evenodd" d="M134.085 302.615L123.672 291.818L107.422 540.211H110.227L134.085 302.615Z" fill="#2B8C6B"/>
<path d="M134.085 303.265L122.498 289.582" stroke="white" stroke-width="1.3" stroke-linecap="round"/>
<path d="M94.0594 249.688C94.0594 249.688 84.3941 291.945 84.3941 333.928C84.3941 375.91 79.4931 539.748 79.4931 539.748" stroke="white" stroke-width="1.3" stroke-linecap="round"/>
<path fill-rule="evenodd" clip-rule="evenodd" d="M175.564 247.365C175.564 247.365 185.481 273.427 185.481 297.518C185.481 321.608 190.204 539.748 190.204 539.748H156.635C156.635 539.748 146.001 402.613 143.895 376.156C141.789 349.699 126.293 249.225 126.293 249.225L175.564 247.365Z" fill="#6FBF44"/>
<path d="M168.397 247.828C168.397 247.828 177.592 273.853 180.229 312.502C182.867 351.151 186.221 539.748 186.221 539.748" stroke="white" stroke-width="1.3" stroke-linecap="round"/>
<path fill-rule="evenodd" clip-rule="evenodd" d="M91.298 249.688C91.298 249.688 112.975 252.591 136.022 252.591C159.069 252.591 174.503 249.688 174.503 249.688H91.298Z" fill="white"/>
<path fill-rule="evenodd" clip-rule="evenodd" d="M115.387 142.147C115.387 142.147 82.556 144.899 69.198 155.401C55.8399 165.902 34.0313 207.397 34.0313 207.397L62.4608 228.515L77.0777 207.397C77.0777 207.397 80.3124 241.158 91.298 249.688H174.503C174.503 249.688 187.317 238.402 191.408 207.397L241.727 203.165L238.446 163.425C238.446 163.425 187.556 141.401 141.536 142.231L115.387 142.147Z" fill="url(#paint0_linear_0_113)"/>
<path fill-rule="evenodd" clip-rule="evenodd" d="M40.5526 201.368C36.5362 199.012 33.2497 204.297 29.6143 209.679C25.9789 215.061 23.2196 215.228 29.1021 218.866C34.9846 222.504 55.4757 241.661 58.8289 238.803C62.1821 235.945 61.8943 227.655 64.6114 227.078C67.3284 226.5 71.4003 224.881 65.6944 218.813C59.9885 212.744 44.5691 203.723 40.5526 201.368Z" fill="#6FBF44"/>
<path fill-rule="evenodd" clip-rule="evenodd" d="M219.924 185.931C219.924 197.009 222.982 206.981 243.095 207.009C263.207 207.036 268.263 178.236 263.139 169.693C258.015 161.15 250.359 147.362 236.671 151.545C222.982 155.728 219.924 174.852 219.924 185.931Z" fill="#6FBF44"/>
<path fill-rule="evenodd" clip-rule="evenodd" d="M259.824 168.233C258.527 180.568 254.141 195.733 241.427 194.396C228.713 193.06 224.407 170.317 230.603 143.218C236.8 116.118 247.658 72.0304 247.658 72.0304L247.372 71.6162C242.075 63.941 238.315 55.3118 236.301 46.2059L233.279 40.0723C232.808 39.1149 233.13 37.956 234.028 37.3797C234.762 36.9088 235.711 36.9411 236.411 37.461L239.905 40.0547C240.848 40.7545 241.633 41.6442 242.211 42.6664L246.353 49.9992L246.321 21.6845C246.319 20.4177 247.282 19.3577 248.543 19.2371C249.878 19.1095 251.069 20.0768 251.217 21.4099L253.468 41.6246L257.647 18.1885C257.887 16.839 259.13 15.9047 260.493 16.048C261.872 16.1929 262.898 17.3894 262.83 18.7743L261.676 42.4872L268.528 24.8939C269.01 23.655 270.383 23.016 271.641 23.4443C272.913 23.8771 273.613 25.2338 273.22 26.5184C271.498 32.1499 267.253 46.1393 267.8 45.4786C268.313 44.8601 271.458 39.0938 273.006 36.2359C273.498 35.3271 274.587 34.9227 275.553 35.2924C276.594 35.6911 277.127 36.8472 276.754 37.8977L269.268 58.9933L265.506 72.994C265.506 72.994 261.12 155.897 259.824 168.233Z" fill="#FFD1AB"/>
<path d="M246.894 48.7682C246.894 48.7682 258.874 56.5614 258.332 61.7094" stroke="white" stroke-width="1.3" stroke-linecap="round"/>
<path d="M269.602 45.819C269.602 45.819 262.436 40.5648 250.891 41.1784" stroke="white" stroke-width="1.3" stroke-linecap="round"/>
<path fill-rule="evenodd" clip-rule="evenodd" d="M112.84 109.677C112.84 109.677 116.074 119.478 114.457 129.177C112.84 138.876 112.84 142.636 110.227 144.186C110.227 144.186 120.058 152.73 129.799 152.73C139.539 152.73 148.501 144.186 148.501 144.186C148.501 144.186 142.746 142.104 142.746 131.054C142.746 120.004 143.529 106.556 143.529 106.556L112.84 109.677Z" fill="#FFD1AB"/>
<path fill-rule="evenodd" clip-rule="evenodd" d="M143.047 116.412C142.846 121.601 142.746 126.481 142.746 131.054C142.746 136.224 143.69 139.922 145.58 142.147C126.84 134.821 116.663 129.657 115.048 126.653C115.105 125.047 115.077 123.473 114.989 121.973C114.964 120.598 114.865 119.222 114.695 117.844L143.047 116.412Z" fill="#CF8B54"/>
<path fill-rule="evenodd" clip-rule="evenodd" d="M108.752 108.44C102.022 98.1072 99.9336 78.623 114.588 74.3294C115.583 59.6391 148.932 65.9888 153.175 81.6419C157.419 97.295 148.688 119.458 136.406 122.112C124.124 124.766 115.482 118.774 108.752 108.44Z" fill="#18233D"/>
<path d="M121.198 75.7654C121.198 75.7654 133.605 80.0567 141.536 80.0567" stroke="white" stroke-width="1.3" stroke-linecap="round"/>
<path fill-rule="evenodd" clip-rule="evenodd" d="M115.387 82.9622C119.335 81.4296 129.968 84.9932 134.583 85.7833C138.252 86.4116 143.207 87.4801 145.58 83.871C144.842 103.738 146.513 98.1515 148.573 98.3737C148.993 98.2478 149.437 98.1803 149.897 98.1803C152.488 98.1803 154.59 100.328 154.59 102.978C154.59 105.627 152.488 107.775 149.897 107.775C148.688 107.775 147.586 107.308 146.755 106.541C146.761 114.948 143.212 130.855 128.618 130.855C114.024 130.855 112.449 117.789 110.689 106.208C110.37 106.278 110.04 106.315 109.701 106.315C107.109 106.315 105.008 104.167 105.008 101.518C105.008 98.8681 107.109 96.7202 109.701 96.7202C109.884 96.7202 109.844 99.2443 110.689 98.9478C113.146 97.6006 112.7 90.7138 115.387 82.9622Z" fill="#FFD1AB"/>
<path d="M124.183 117.845C124.183 117.845 126.258 120.445 130.683 117.845" stroke="#18233D" stroke-width="1.3" stroke-linecap="round"/>
<path d="M127.022 100.235C127.943 103.707 125.014 111.002 124.414 112.916C123.813 114.83 127.255 112.916 127.255 112.916" stroke="#18233D" stroke-width="1.3" stroke-linecap="round"/>
<path d="M132.244 96.3245C132.244 96.3245 136.346 94.373 140.569 97.0689" stroke="#18233D" stroke-width="1.3" stroke-linecap="round"/>
<path d="M115.473 96.7387C115.473 96.7387 119.347 94.3713 123.831 96.6134" stroke="#18233D" stroke-width="1.3" stroke-linecap="round"/>
<ellipse cx="135.888" cy="100.246" rx="1.30478" ry="1.29794" fill="#18233D"/>
<ellipse cx="120.23" cy="100.246" rx="1.30478" ry="1.29794" fill="#18233D"/>
<path d="M148.501 104.139L151.11 103.274" stroke="#18233D" stroke-width="1.3" stroke-linecap="round"/>
<path d="M110.227 102.409L107.617 101.544" stroke="#18233D" stroke-width="1.3" stroke-linecap="round"/>
<path d="M154.262 95.505L156.298 105.272" stroke="white" stroke-width="1.3" stroke-linecap="round"/>
<rect x="123.672" y="169.438" width="24.7" height="45.5" rx="1.3" fill="#FE8B6E"/>
<path fill-rule="evenodd" clip-rule="evenodd" d="M29.1021 218.866C29.1021 218.866 17.2511 253.37 38.7681 259.828C60.2852 266.286 121.469 213.63 121.469 213.63C121.469 213.63 138.152 210.344 140.569 201.333C142.985 192.321 143.895 183.858 143.895 183.858L123.658 193.149V186.649C123.658 186.649 118.575 188.957 116.153 195.442C104.264 201.434 42.9372 228.515 42.9372 228.515L29.1021 218.866Z" fill="#FFD1AB"/>
<path d="M143.193 190.165C143.193 190.165 138.099 194.347 135.393 195.365" stroke="#18233D" stroke-width="1.3" stroke-linecap="round"/>
<path d="M143.193 194.065C143.193 194.065 138.099 198.247 135.393 199.265" stroke="#18233D" stroke-width="1.3" stroke-linecap="round"/>
<path d="M140.593 200.565C140.593 200.565 137.197 203.701 135.393 204.465" stroke="#18233D" stroke-width="1.3" stroke-linecap="round"/>
<path d="M36.0747 231.081C36.0747 231.081 65.5766 218.388 76.6577 212.892" stroke="white" stroke-width="1.3" stroke-linecap="round"/>
<path fill-rule="evenodd" clip-rule="evenodd" d="M330.651 104.811C330.651 104.811 318.411 104.071 315.557 113.993C312.704 123.914 313.858 164.207 303.067 173.813C292.276 183.419 320.299 206.438 353.338 197.065C386.377 187.693 384.762 177.305 380.09 169.149C375.417 160.994 374.87 121.668 360.607 106.007C346.343 90.3457 330.651 104.811 330.651 104.811Z" fill="#18233D"/>
<path fill-rule="evenodd" clip-rule="evenodd" d="M298.574 257.166C298.574 257.166 288.682 310.315 296.085 339.205C303.489 368.095 317.675 424.703 317.675 424.703C317.675 424.703 309.266 444.353 309.266 475.366C309.266 506.378 305.296 539.865 305.296 539.865H327.921C327.921 539.865 350.851 435.797 353.893 411.684C355.085 402.234 347.27 358.176 345.381 321.979C344.057 296.602 346.604 247.365 346.604 247.365L298.574 257.166Z" fill="url(#paint1_linear_0_113)"/>
<path fill-rule="evenodd" clip-rule="evenodd" d="M377.679 256.465L439.816 539.865H416.757C416.757 539.865 391.512 481.761 387.808 468.945C384.103 456.129 381.316 431.851 381.316 431.851C381.316 431.851 354.181 350.726 344.526 322.487C333.808 291.139 324.278 275.884 322.816 256.465H377.679Z" fill="url(#paint2_linear_0_113)"/>
<path fill-rule="evenodd" clip-rule="evenodd" d="M329.161 166.765C329.161 166.765 302.274 167.682 296.187 177.23C290.1 186.779 302.813 231.732 302.813 231.732C302.813 231.732 294.341 258.232 296.187 262.573C298.033 266.913 379.257 265.254 382.678 265.254C386.1 265.254 375.693 231.732 375.693 231.732C375.693 231.732 391.716 197.709 391.716 182.237C391.716 166.765 329.161 166.765 329.161 166.765Z" fill="#6FBF44"/>
<path fill-rule="evenodd" clip-rule="evenodd" d="M296.816 263.543L345.231 212.265L365.716 214.136L349.885 218.981L351.383 221.143C351.383 221.143 339.304 243.313 331.266 251.761C323.229 260.209 311.244 265.565 311.244 265.565C311.244 265.565 304.558 265.438 301.033 264.944C297.508 264.45 296.816 263.543 296.816 263.543Z" fill="#2B8C6B"/>
<path d="M339.716 106.965C339.716 106.965 354.58 125.165 363.116 125.165" stroke="white" stroke-width="1.3" stroke-linecap="round"/>
<path fill-rule="evenodd" clip-rule="evenodd" d="M328.201 137.865C328.201 137.865 330.659 146.721 329.43 155.485C328.201 164.249 328.201 167.646 326.215 169.047C326.215 169.047 323.698 186.862 339.664 188.037C355.631 189.212 355.306 169.047 355.306 169.047C355.306 169.047 350.932 167.166 350.932 157.181C350.932 147.196 351.527 135.045 351.527 135.045L328.201 137.865Z" fill="#FFD1AB"/>
<path fill-rule="evenodd" clip-rule="evenodd" d="M351.07 143.951C350.919 148.639 350.843 153.049 350.843 157.181C350.843 161.853 351.555 165.194 352.979 167.204C338.858 160.585 331.189 155.918 329.972 153.205C330.015 151.753 329.994 150.331 329.928 148.975C329.909 147.733 329.835 146.489 329.706 145.245L351.07 143.951Z" fill="#CF8B54"/>
<path fill-rule="evenodd" clip-rule="evenodd" d="M333.496 115.722C339.836 113.878 341.012 119.838 345.176 122.948C349.339 126.059 355.855 128.625 357.698 128.826C358.074 128.712 358.472 128.651 358.883 128.651C361.203 128.651 363.084 130.592 363.084 132.986C363.084 135.38 361.203 137.321 358.883 137.321C357.801 137.321 356.815 136.899 356.071 136.206C356.076 143.803 352.9 158.175 339.836 158.175C326.773 158.175 325.364 146.37 323.788 135.905C323.503 135.969 323.207 136.002 322.903 136.002C320.583 136.002 318.703 134.061 318.703 131.667C318.703 129.273 320.583 127.332 322.903 127.332C323.067 127.332 333.353 123.724 333.496 115.722Z" fill="#FFD1AB"/>
<path d="M338.408 130.508C339.232 133.645 336.611 140.237 336.073 141.966C335.536 143.696 338.617 141.966 338.617 141.966" stroke="#18233D" stroke-width="1.3" stroke-linecap="round"/>
<path d="M343.082 126.974C343.082 126.974 346.753 125.211 350.534 127.647" stroke="#18233D" stroke-width="1.3" stroke-linecap="round"/>
<path d="M328.07 127.349C328.07 127.349 331.538 125.21 335.551 127.235" stroke="#18233D" stroke-width="1.3" stroke-linecap="round"/>
<ellipse cx="346.344" cy="130.518" rx="1.16792" ry="1.1728" fill="#18233D"/>
<ellipse cx="332.328" cy="130.518" rx="1.16792" ry="1.1728" fill="#18233D"/>
<path fill-rule="evenodd" clip-rule="evenodd" d="M335.054 146.305L342.18 145.764C342.18 145.764 341.167 149.363 338.617 149.363C336.066 149.363 335.054 146.305 335.054 146.305Z" fill="white"/>
<path d="M357.633 134.036L359.969 133.254" stroke="#18233D" stroke-width="1.3" stroke-linecap="round"/>
<path d="M323.374 132.472L321.039 131.69" stroke="#18233D" stroke-width="1.3" stroke-linecap="round"/>
<path fill-rule="evenodd" clip-rule="evenodd" d="M475.463 152.448C471.5 162.256 466.745 176.434 456.394 172.252C446.043 168.07 447.734 148.361 459.248 127.626C470.762 106.89 490.145 73.3439 490.145 73.3439L489.971 72.8464C487.339 65.3221 486.207 57.3546 486.641 49.3948L485.545 43.6717C485.369 42.7519 485.924 41.8497 486.824 41.5912C487.533 41.3873 488.296 41.6349 488.75 42.2167L491.082 45.2016C491.72 46.0178 492.179 46.9583 492.432 47.9627L494.187 54.9472L500.744 31.7604C501.047 30.6897 502.118 30.0281 503.211 30.2366C504.354 30.4547 505.115 31.5447 504.926 32.6933L502.106 49.8012L511.052 31.626C511.581 30.5517 512.849 30.0676 513.959 30.5161C515.082 30.9699 515.656 32.2212 515.268 33.3686L508.788 52.5008L518.622 39.7421C519.325 38.8304 520.618 38.6272 521.567 39.2792C522.54 39.948 522.803 41.2656 522.156 42.2528C519.375 46.4918 512.616 56.8494 513.227 56.4419C513.8 56.059 517.775 52.0969 519.741 50.1254C520.371 49.4936 521.369 49.4189 522.085 49.9511C522.872 50.5361 523.043 51.6447 522.469 52.4395L511.307 67.8891L504.888 78.4658C504.888 78.4658 479.426 142.64 475.463 152.448Z" fill="#FFD1AB"/>
<path d="M495.471 54.0526C495.471 54.0526 503.855 63.338 502.223 67.3768" stroke="white" stroke-width="1.3" stroke-linecap="round"/>
<path d="M515.096 58.0691C515.096 58.0691 510.283 51.8683 500.325 49.5725" stroke="white" stroke-width="1.3" stroke-linecap="round"/>
<path fill-rule="evenodd" clip-rule="evenodd" d="M370.916 171.167L397.184 167.472L445.442 144.556L487.539 75.7654L508.716 81.2428C508.716 81.2428 478.184 160.881 467.161 172.282C456.137 183.684 378.327 216.165 378.327 216.165L370.916 171.167Z" fill="#6FBF44"/>
<path d="M445.016 144.665L447.616 152.465" stroke="white" stroke-width="1.3" stroke-linecap="round"/>
<path fill-rule="evenodd" clip-rule="evenodd" d="M350.953 160.273C350.953 160.273 358.682 160.497 361.12 168.517C363.558 176.537 361.905 202.599 369.903 209.359L362.044 218.435C362.044 218.435 328.23 210.183 319.4 189.35C310.57 168.517 328.971 160.474 328.971 160.474L327.634 167.095C327.634 167.095 320.659 173.172 323.672 182.19C326.685 191.207 346.809 206.536 356.828 208.58C354.893 199.739 353.429 184.038 354.402 175.462C355.375 166.886 350.638 164.395 350.638 164.395L350.953 160.273Z" fill="url(#paint3_linear_0_113)"/>
<mask id="mask1_0_113" style="mask-type:luminance" maskUnits="userSpaceOnUse" x="317" y="160" width="53" height="59">
<path fill-rule="evenodd" clip-rule="evenodd" d="M350.953 160.273C350.953 160.273 358.682 160.497 361.12 168.517C363.558 176.537 361.905 202.599 369.903 209.359L362.044 218.435C362.044 218.435 328.23 210.183 319.4 189.35C310.57 168.517 328.971 160.474 328.971 160.474L327.634 167.095C327.634 167.095 320.659 173.172 323.672 182.19C326.685 191.207 346.809 206.536 356.828 208.58C354.893 199.739 353.429 184.038 354.402 175.462C355.375 166.886 350.638 164.395 350.638 164.395L350.953 160.273Z" fill="white"/>
</mask>
<g mask="url(#mask1_0_113)">
<path fill-rule="evenodd" clip-rule="evenodd" d="M362.215 175.332L354.23 177.409C354.275 176.727 354.332 176.076 354.402 175.462C355.051 169.745 353.796 166.056 350.638 164.395L350.953 160.273C356.106 160.422 359.494 163.171 361.12 168.517C361.616 170.148 361.942 172.524 362.215 175.332ZM319.222 168.07C321.324 164.897 324.678 162.296 329.281 160.265L327.945 166.886C326.089 168.487 324.735 170.221 323.881 172.088L319.222 168.07Z" fill="url(#paint4_linear_0_113)"/>
<path d="M350.073 161.397C350.073 161.397 357.881 162.278 359.5 171.822C361.12 181.366 356.71 196.144 363.538 208.61" stroke="white" stroke-width="1.69"/>
<path fill-rule="evenodd" clip-rule="evenodd" d="M356.828 208.58L362.044 218.435C362.044 218.435 352.768 215.73 349.043 214.619C345.319 213.508 346.125 203.806 346.125 203.806C346.125 203.806 349.693 206.013 351.85 206.975C354.007 207.937 356.828 208.58 356.828 208.58Z" fill="url(#paint5_linear_0_113)"/>
<path d="M328.665 163.425C328.665 163.425 320.745 166.142 319.4 176.537C318.055 186.932 332.958 207.074 356.346 213.558" stroke="white" stroke-width="1.3" stroke-linecap="round"/>
</g>
<ellipse cx="11.1288" cy="13.1577" rx="11.1288" ry="13.1577" transform="matrix(-0.309017 0.951057 0.951057 0.309017 364.464 204.665)" fill="#F5BB37"/>
<mask id="mask2_0_113" style="mask-type:luminance" maskUnits="userSpaceOnUse" x="360" y="207" width="27" height="24">
<ellipse cx="11.1288" cy="13.1577" rx="11.1288" ry="13.1577" transform="matrix(-0.309017 0.951057 0.951057 0.309017 364.464 204.665)" fill="white"/>
</mask>
<g mask="url(#mask2_0_113)">
<path d="M364.609 217.888L360.469 223.734L358.842 222.531L362.982 216.684L364.609 217.888Z" fill="url(#paint6_linear_0_113)"/>
<path d="M367.916 223.785L364.929 228.357L363.26 227.215L366.247 222.642L367.916 223.785Z" fill="url(#paint7_linear_0_113)"/>
<path d="M372.881 226.592L371.044 231.325L369.188 230.548L371.024 225.815L372.881 226.592Z" fill="url(#paint8_linear_0_113)"/>
<path d="M378.554 226.343L376.485 232.252L374.513 231.918L376.582 226.009L378.554 226.343Z" fill="url(#paint9_linear_0_113)"/>
<path d="M383.541 225.676L382.452 229.521L380.492 229.84L381.581 225.995L383.541 225.676Z" fill="url(#paint10_linear_0_113)"/>
</g>
<ellipse cx="11.1288" cy="13.1577" rx="11.1288" ry="13.1577" transform="matrix(-0.309017 0.951057 0.951057 0.309017 365.356 203.008)" fill="url(#paint11_linear_0_113)"/>
<ellipse cx="8.42177" cy="9.8432" rx="8.42177" ry="9.8432" transform="matrix(-0.309017 0.951057 0.951057 0.309017 367.672 206.607)" stroke="white" stroke-width="0.845"/>
<path d="M369.201 218.42C368.905 218.325 368.677 218.07 368.608 217.755C368.538 217.439 368.641 217.129 368.877 216.945L370.972 215.307C371.061 215.238 371.108 215.124 371.098 215.003L370.866 212.163C370.84 211.844 370.986 211.555 371.247 211.411C371.507 211.266 371.829 211.295 372.086 211.487L374.372 213.188C374.469 213.261 374.591 213.281 374.698 213.242L377.196 212.333C377.477 212.231 377.795 212.308 378.026 212.534C378.256 212.761 378.352 213.089 378.275 213.391L377.593 216.08C377.564 216.194 377.592 216.321 377.668 216.418L379.443 218.697C379.6 218.897 379.665 219.14 379.629 219.381C379.572 219.756 379.263 220.031 378.89 220.026L376.183 219.986C376.07 219.984 375.962 220.045 375.903 220.141L374.502 222.458C374.434 222.571 374.344 222.659 374.234 222.72C374.033 222.831 373.789 222.839 373.564 222.742C373.34 222.646 373.169 222.461 373.082 222.223L372.091 219.509C372.048 219.394 371.956 219.303 371.843 219.267L369.201 218.42Z" fill="url(#paint12_linear_0_113)"/>
<path fill-rule="evenodd" clip-rule="evenodd" d="M303.437 171.436C303.437 171.436 291.74 174.003 287.291 189.177C282.842 204.351 269.44 236.114 274.567 254.718C276.695 262.439 285.878 265.687 297.262 263.689C313.306 260.872 328.291 247.465 344.916 221.804L334.401 211.834L300.726 233.361L303.437 171.436Z" fill="#6FBF44"/>
<path d="M300.716 233.065L291.616 242.165" stroke="white" stroke-width="1.3" stroke-linecap="round"/>
<path d="M306.606 205.765C304.659 217.706 300.716 233.065 300.716 233.065L334.516 211.934" stroke="white" stroke-width="1.3" stroke-linecap="round"/>
<rect x="348.816" y="184.965" width="16.9" height="31.2" rx="1.3" fill="#FE8B6E"/>
<path fill-rule="evenodd" clip-rule="evenodd" d="M335.816 212.942C335.816 212.942 343.078 203.698 345.006 200.736C346.934 197.773 349.129 194.705 349.129 194.705V200.736C349.129 200.736 361.321 195.126 362.026 191.465C363.132 198.804 364.491 200.917 359.966 208.404C355.442 215.89 342.768 220.065 342.768 220.065L335.816 212.942Z" fill="#FFD1AB"/>
<path d="M363.116 196.665C363.116 196.665 358.022 200.847 355.316 201.865" stroke="#18233D" stroke-width="1.3" stroke-linecap="round"/>
<path d="M363.116 200.565C363.116 200.565 358.022 204.747 355.316 205.765" stroke="#18233D" stroke-width="1.3" stroke-linecap="round"/>
<path d="M360.516 207.065C360.516 207.065 357.12 210.201 355.316 210.965" stroke="#18233D" stroke-width="1.3" stroke-linecap="round"/>
</g>
<defs>
<linearGradient id="paint0_linear_0_113" x1="34.0313" y1="142.147" x2="34.0313" y2="249.688" gradientUnits="userSpaceOnUse">
<stop stop-color="#354970"/>
<stop offset="1" stop-color="#18233D"/>
</linearGradient>
<linearGradient id="paint1_linear_0_113" x1="292.916" y1="247.365" x2="292.916" y2="539.865" gradientUnits="userSpaceOnUse">
<stop stop-color="#354970"/>
<stop offset="1" stop-color="#18233D"/>
</linearGradient>
<linearGradient id="paint2_linear_0_113" x1="322.816" y1="256.465" x2="322.816" y2="539.865" gradientUnits="userSpaceOnUse">
<stop stop-color="#354970"/>
<stop offset="1" stop-color="#18233D"/>
</linearGradient>
<linearGradient id="paint3_linear_0_113" x1="312.913" y1="210.535" x2="366.432" y2="217.205" gradientUnits="userSpaceOnUse">
<stop stop-color="#FCEA91"/>
<stop offset="1" stop-color="#FFD757"/>
</linearGradient>
<linearGradient id="paint4_linear_0_113" x1="352.94" y1="169.097" x2="353.147" y2="154.499" gradientUnits="userSpaceOnUse">
<stop stop-color="#FFDD67"/>
<stop offset="1" stop-color="#F5BB37"/>
</linearGradient>
<linearGradient id="paint5_linear_0_113" x1="344.474" y1="216.61" x2="356.386" y2="219.88" gradientUnits="userSpaceOnUse">
<stop stop-color="#FDE175"/>
<stop offset="1" stop-color="#F5BB37"/>
</linearGradient>
<linearGradient id="paint6_linear_0_113" x1="363.717" y1="216.277" x2="366.115" y2="220.605" gradientUnits="userSpaceOnUse">
<stop stop-color="#FA904A"/>
<stop offset="1" stop-color="#DB6742"/>
</linearGradient>
<linearGradient id="paint7_linear_0_113" x1="367.039" y1="222.203" x2="369.153" y2="226.016" gradientUnits="userSpaceOnUse">
<stop stop-color="#FA904A"/>
<stop offset="1" stop-color="#DB6742"/>
</linearGradient>
<linearGradient id="paint8_linear_0_113" x1="372.115" y1="225.211" x2="374.456" y2="229.434" gradientUnits="userSpaceOnUse">
<stop stop-color="#FA904A"/>
<stop offset="1" stop-color="#DB6742"/>
</linearGradient>
<linearGradient id="paint9_linear_0_113" x1="377.949" y1="225.251" x2="380.573" y2="229.986" gradientUnits="userSpaceOnUse">
<stop stop-color="#FA904A"/>
<stop offset="1" stop-color="#DB6742"/>
</linearGradient>
<linearGradient id="paint10_linear_0_113" x1="383.215" y1="225.089" x2="384.915" y2="228.156" gradientUnits="userSpaceOnUse">
<stop stop-color="#FA904A"/>
<stop offset="1" stop-color="#DB6742"/>
</linearGradient>
<linearGradient id="paint11_linear_0_113" x1="-1.51153" y1="22.7413" x2="20.8614" y2="25.3114" gradientUnits="userSpaceOnUse">
<stop stop-color="#FCEA91"/>
<stop offset="1" stop-color="#FFD757"/>
</linearGradient>
<linearGradient id="paint12_linear_0_113" x1="375.99" y1="208.782" x2="381.487" y2="218.7" gradientUnits="userSpaceOnUse">
<stop stop-color="white"/>
<stop offset="1" stop-color="#FCE5C2"/>
</linearGradient>
</defs>
</svg>
